<svg width="40" height="40" viewBox="0 0 46 47" fill="none" xmlns="http://www.w3.org/2000/svg">
<path id="Vector" d="M23 0.5C10.3179 0.5 0 10.8179 0 23.5C0 36.1821 10.3179 46.5 23 46.5C35.6821 46.5 46 36.1821 46 23.5C46 10.8179 35.6821 0.5 23 0.5ZM38.5515 33.2396H33.3799L31.5122 30.0329L33.1709 23.3496L36.4672 21.9519L41.1833 26.0112C40.8301 28.5804 39.9329 31.0448 38.5515 33.2396ZM9.53284 21.9519L12.8269 23.3529L14.4856 30.0362L12.6179 33.2429H7.44846C6.06751 31.0491 5.17031 28.5859 4.81673 26.0178L9.53284 21.9519ZM37.0742 11.7269L35.0385 17.5134L31.5974 18.9708L25.3221 13.7095V9.83933L30.172 6.60827C32.8439 7.74845 35.2087 9.50337 37.0742 11.7302V11.7269ZM15.828 6.60385L20.6779 9.8349V13.7051L14.4026 18.9697L10.9615 17.5123L8.92577 11.7258C10.7912 9.49895 13.1561 7.74403 15.828 6.60385ZM18.7516 41.3582L16.529 35.7563L18.2983 32.7144H27.6973L29.4732 35.7586L27.2616 41.3537C24.4626 42.0201 21.5462 42.0201 18.7472 41.3537L18.7516 41.3582Z" fill="white"/>
</svg>
